<svg width="399" height="399" viewBox="0 0 399 399" fill="none" xmlns="http://www.w3.org/2000/svg">
<g clip-path="url(#clip0)">
<path d="M193.794 35.0909H132.288L83.9929 326H145.499L193.794 35.0909Z" fill="black"/>
<path d="M305.49 317.49C303.224 319.922 300.492 321.872 297.456 323.225C294.42 324.578 291.142 325.305 287.819 325.364C284.496 325.422 281.195 324.811 278.113 323.566C275.031 322.321 272.232 320.469 269.882 318.118C267.532 315.768 265.679 312.969 264.434 309.887C263.189 306.805 262.578 303.504 262.636 300.181C262.695 296.858 263.422 293.58 264.775 290.544C266.128 287.508 268.078 284.776 270.51 282.51M337.005 349.005C322.902 359.755 305.73 365.71 288 366C230.25 366 197.25 300 197.25 300C207.512 280.876 221.745 264.167 238.995 250.995L337.005 349.005ZM270.675 235.98C276.354 234.651 282.168 233.987 288 234C345.75 234 378.75 300 378.75 300C373.742 309.369 367.77 318.189 360.93 326.318L270.675 235.98Z" stroke="black" stroke-width="13.2" stroke-linecap="round" stroke-linejoin="round"/>
<path d="M197.25 209.25L378.75 390.75" stroke="black" stroke-width="13.2" stroke-linecap="round" stroke-linejoin="round"/>
</g>
<defs>
<clipPath id="clip0">
<rect width="399" height="399" fill="white"/>
</clipPath>
</defs>
</svg>
